/* XPM */
static char *e9b52ec622c24edcc56ee2701ab28697[] = {
/* columns rows colors chars-per-pixel */
"64 64 107 2 ",
"   c #0F477E",
".  c #0E487F",
"X  c #10477E",
"o  c #12487F",
"O  c #454547",
"+  c #484544",
"@  c #464649",
"#  c #47484A",
"$  c #494A4C",
"%  c #4D4E51",
"&  c #4F5052",
"*  c #515255",
"=  c #565759",
"-  c #57585A",
";  c #5A5B5D",
":  c #5D5E61",
">  c #5E6061",
",  c #616264",
"<  c #656769",
"1  c #65686A",
"2  c #696A6D",
"3  c #6D6E71",
"4  c #6E7072",
"5  c #727476",
"6  c #757679",
"7  c #77797B",
"8  c #797B7D",
"9  c #0E4A84",
"0  c #0A4D8A",
"q  c #104984",
"w  c #114E89",
"e  c #07518F",
"r  c #0C528C",
"t  c #11558E",
"y  c #075392",
"u  c #0B5593",
"i  c #0B5997",
"p  c #0B599A",
"a  c #105791",
"s  c #125995",
"d  c #155E9B",
"f  c #17609F",
"g  c #19609D",
"h  c #115FA0",
"j  c #0F6BAD",
"k  c #1563A3",
"l  c #1963A1",
"z  c #1467A8",
"x  c #1169AC",
"c  c #0A6EB2",
"v  c #0771B6",
"b  c #0970B5",
"n  c #0674B9",
"m  c #0877BB",
"M  c #0B79BE",
"N  c #7D7E81",
"B  c #0F7CC0",
"V  c #127EC1",
"C  c #7F8183",
"Z  c #1681C4",
"A  c #1A83C5",
"S  c #1B87C8",
"D  c #1A8BCB",
"F  c #1991CE",
"G  c #1895D2",
"H  c #179CD7",
"J  c #189AD5",
"K  c #179DD8",
"L  c #838486",
"P  c #848688",
"I  c #87898B",
"U  c #8A8B8D",
"Y  c #8E8F91",
"T  c #8F9193",
"R  c #929495",
"E  c #959698",
"W  c #97999B",
"Q  c #9A9C9E",
"!  c #9C9EA1",
"~  c #9EA0A2",
"^  c #A2A3A5",
"/  c #A5A6A8",
"(  c #ABACAE",
")  c #ADAEB1",
"_  c #AFB0B1",
"`  c #B1B1B3",
"'  c #B5B6B8",
"]  c #B8B7B9",
"[  c #BBBBBD",
"{  c #BFBEC0",
"}  c #C0BFC1",
"|  c #C5C5C6",
" . c #CBCBCC",
".. c #D0CFD0",
"X. c #D4D3D4",
"o. c #D7D7D8",
"O. c #D8D7D9",
"+. c #DCDCDD",
"@. c #DEDFE1",
"#. c #E4E3E4",
"$. c #E6E7E9",
"%. c #EBEBEC",
"&. c #EFEFF0",
"*. c #F2F2F2",
"=. c #F6F7F9",
"-. c #F9F9FA",
";. c None",
/* pixels */
";.;.;.;.;.;.;.;.;.;.;.;.;.;.;.;.;.;.;.;.;.;.;.;.;.;.;.~ / ] | o.$.=.-.%.;.;.;.;.;.;.;.;.;.;.;.;.;.;.;.;.;.;.;.;.;.;.;.;.;.;.;.;.",
";.;.;.;.;.;.;.;.;.;.;.;.;.;.;.;.;.;.;.;.;.;.;.I Y R Q ~ ( ] | o.$.-.=.%.#.+... .;.;.;.;.;.;.;.;.;.;.;.;.;.;.;.;.;.;.;.;.;.;.;.;.",
";.;.;.;.;.;.;.;.;.;.;.;.;.;.;.;.;.;.;.;.;.N P U T R Q Q ;.;.;.;.;.;.;.$.@.O... .} [ ;.;.;.;.;.;.;.;.;.;.;.;.;.;.;.;.;.;.;.;.;.;.",
";.;.;.;.;.;.;.;.;.;.;.;.;.;.;.;.;.;.;.6 8 L P I ;.;.;.;.;.;.;.;.;.;.;.;.;.;.;.| | ] ` ( ;.;.;.;.;.;.;.;.;.;.;.;.;.;.;.;.;.;.;.;.",
";.;.;.;.;.;.;.;.;.;.;.;.;.;.;.;.;.4 5 7 8 ;.;.;.;.;.;.d p y y e e 0 w w ;.;.;.;.;.;.` ( ^ ! ;.;.;.;.;.;.;.;.;.;.;.;.;.;.;.;.;.;.",
";.;.;.;.;.;.;.;.;.;.;.;.;.;.;.;.2 4 5 ;.;.;.;.;.n c z l p y y y e 0 0 9 9 q q ;.;.;.;.;.^ ! W ;.;.;.;.;.;.;.;.;.;.;.;.;.;.;.;.;.",
";.;.;.;.;.;.;.;.;.;.;.;.;.;.;.< 2 4 ;.;.;.;.A V m n c z k p y y y e 0 0 9 q q q q ;.;.;.;.! E U ;.;.;.;.;.;.;.;.;.;.;.;.;.;.;.;.",
";.;.;.;.;.;.;.;.;.;.;.;.;.: , < 3 ;.;.;.G F S A V m n c x k p p u y e e 0 0 9 q q 0 q ;.;.;.R Y L 7 ;.;.;.;.;.;.;.;.;.;.;.;.;.;.",
";.;.;.;.;.;.;.;.;.;.;.;.;.: , ;.;.;.J K J F D S Z V m v ;.;.;.;.;.;.;.e 0 0 9 q q q q q q ;.;.;.C 6 4 ;.;.;.;.;.;.;.;.;.;.;.;.;.",
";.;.;.;.;.;.;.;.;.;.;.;.; : ;.;.;.F J J K K G D A ;.;.;.;.;.;.;.;.;.;.;.;.;.0 9 q q q q 9 q ;.;.;.6 3 ;.;.;.;.;.;.;.;.;.;.;.;.;.",
";.;.;.;.;.;.;.;.;.;.;.= ; , ;.;.D F F J K K J ;.;.;.;.;.;.;.;.;.;.;.;.;.;.;.;.;.9 q q q q 9 q ;.;.;.3 < ;.;.;.;.;.;.;.;.;.;.;.;.",
";.;.;.;.;.;.;.;.;.;.* - ; ;.;.A S D F G J ;.;.;.;.;.;.;.o.*.| Q P 6 < ;.;.;.;.;.;.;.9 q q q 9 q ;.;.2 < ; ;.;.;.;.;.;.;.;.;.;.;.",
";.;.;.;.;.;.;.;.;.;.* - ;.;.V Z A S D F ;.;.;.;.;.U Q ) o.&.| ~ P 6 < : = * ;.;.;.;.;.9 q q q 9 q ;.;., : ; ;.;.;.;.;.;.;.;.;.;.",
";.;.;.;.;.;.;.;.;.& * ;.;.;.M V A A S ;.;.;.;.5 C U W ) o.&.| ~ P 6 < : = * % @ ;.;.;.;.q 9 9 q 9 ;.;.;.; ; ;.;.;.;.;.;.;.;.;.;.",
";.;.;.;.;.;.;.;.% % = ;.;.n m B V A ;.;.;.;.2 5 C U W ( O.*.| Q P 6 < ; = * $ $ @ ;.;.;.q q q q q q ;.;.; - = ;.;.;.;.;.;.;.;.;.",
";.;.;.;.;.;.;.;.$ % ;.;.v n n m B ;.;.;.- , 2 5 N U W ) O.;.;.;.;.;.< : = * % # @ + ;.0 9 q 9 q 9 q q ;.;.- * ;.;.;.;.;.;.;.;.;.",
";.;.;.;.;.;.;.;.$ * ;.;.v n n n ;.;.;.;.- , 2 5 C U ;.;.;.;.;.;.;.;.;.;.;.* $ # @ ;.;.0 q q 9 q q q q ;.;.- * ;.;.;.;.;.;.;.;.;.",
";.;.;.;.;.;.;.$ % ;.;.j c v n n ;.;.;.* - , 2 5 N ;.;.;.;.;.;.;.;.;.;.;.;.;.$ $ ;.;.;.0 9 q q 9 q q q q ;.;.* * ;.;.;.;.;.;.;.;.",
";.;.;.;.;.;.;.$ % ;.;.z j c v ;.;.;.$ & - > 2 ;.;.;.;.;.;.;.;.;.;.;.;.;.;.;.;.;.;.e e 0 9 ;.;.;.q q 9 q ;.;.* % ;.;.;.;.;.;.;.;.",
";.;.;.;.;.;.;.$ % ;.;.l z j v ;.;.;.;.* - , ;.;.;.;.;.;.;.;.;.;.;.;.;.;.;.;.;.;.p u e e ;.;.;.;.q q q q ;.;.* % ;.;.;.;.;.;.;.;.",
";.;.;.;.;.;.@ $ ;.;.d l l x j ;.;.;.;.;.;.;.;.;.;.;.;.;.;.;.;.;.;.;.;.;.;.;.c k p y e ;.;.;.;.;.9 9 q q q ;.;.% $ ;.;.;.;.;.;.;.",
";.;.;.;.;.;.@ $ ;.;.d d l k ;.;.;.;.;.;.;.;.;.;.;.;.;.;.;.;.;.;.;.;.;.;.V B c k i y ;.;.;.;.;.;.;.0 9 q 9 ;.;.$ $ ;.;.;.;.;.;.;.",
";.;.;.;.;.;.# $ ;.;.s d f l ;.;.o o o 0 ;.;.;.;.;.;.;.;.;.;.;.;.;.;.K D A m b k p ;.;.;.;.;.;.;.;.0 q q q ;.;.% $ ;.;.;.;.;.;.;.",
";.;.;.;.;.;.$ $ ;.;.s s d l ;.;.. X q 9 r s d l x c n n M Z S D J K J D Z m c k ;.;.;.;.;.;.@ ;.;.e 0 q q ;.;.% $ ;.;.;.;.;.;.;.",
";.;.;.;.;.;.$ % ;.;.a a d d ;.;.X X 9 9 r a d f x c n n M Z S F F K J D V M b ;.;.;.q ;.;.@ @ ;.;.0 0 0 0 ;.;.$ $ ;.;.;.;.;.;.;.",
";.;.;.;.;.;.$ $ ;.;.r a s d ;.;.X X 9 9 t a d f k c n n M Z S D J K K D A M ;.;.;.q q ;.;.@ O ;.;.e e 0 0 ;.;.% $ ;.;.;.;.;.;.;.",
";.;.;.;.;.;.# % ;.;.r r a a ;.;.. o . 0 r s d f x c n n M Z S F F J J D ;.;.;.e 0 q q ;.;.@ @ ;.;.e e e 0 ;.;.$ $ ;.;.;.;.;.;.;.",
";.;.;.;.;.;.$ % ;.;.9 r a a ;.;.. o . 9 t s d l z c n n M Z S D J J ;.;.;.;.;.0 9 9 q ;.# @ @ ;.;.u r e e ;.;.$ @ ;.;.;.;.;.;.;.",
";.;.;.;.;.;.$ % ;.;.9 0 r t ;.;.. X 9 9 t s d f z c n n M Z S ;.;.;.;.;.;.i y e 9 9 ;.;.# @ @ ;.;.i y y e ;.;.$ @ ;.;.;.;.;.;.;.",
";.;.;.;.;.;.% % ;.;.. 9 9 r ;.;.;.;.;.;.;.;.;.;.;.;.;.;.;.;.;.;.;.;.;.b k u e e ;.;.;.% $ @ ;.;.;.p p y y ;.;.$ $ ;.;.;.;.;.;.;.",
";.;.;.;.;.;.% % ;.;.o 9 9 r ;.;.;.;.;.;.;.;.;.;.;.;.;.;.;.;.;.K G S B v z u y ;.;.;.;.% @ @ ;.;.;.h p y y ;.;.$ @ ;.;.;.;.;.;.;.",
";.;.;.;.;.;.$ * ;.;.X X . r r ;.;.X . 9 r s f k c v n V A D G K G S B v h ;.;.;.;.;.* $ $ @ ;.;.j z p p u ;.;.$ @ ;.;.;.;.;.;.;.",
";.;.;.;.;.;.;.* = ;.;.X . 9 9 ;.;.. . 9 r s g k c n n B A D G K G S V b ;.;.;.;.;.- * $ # ;.;.;.v x k h ;.;.% # ;.;.;.;.;.;.;.;.",
";.;.;.;.;.;.;.* = ;.;.X X . 9 ;.;.;.. 9 r s f k c n n B S D G J J S ;.;.;.;.;.;.: - * % $ ;.;.;.n b j k ;.;.$ $ ;.;.;.;.;.;.;.;.",
";.;.;.;.;.;.;.* = ;.;.X X X . 9 ;.;.o 0 t s f k j n n V A D G K ;.;.;.;.;.;.;.2 : - * % ;.;.;.Z B n c ;.;.;.$ $ ;.;.;.;.;.;.;.;.",
";.;.;.;.;.;.;.;.- ; ;.;.X X X q 9 ;.;.0 r s f k j n n V ;.;.;.;.;.;.;.;.;.I 8 1 ; = * ;.;.;.S A V m n ;.;.% $ ;.;.;.;.;.;.;.;.;.",
";.;.;.;.;.;.;.;.; : ;.;.X o X X . ;.;.;.;.;.;.;.;.;.;.;.;.;.;.;.;.;.;.;.Q I 7 2 : = * ;.;.;.F D A V M ;.;.% $ ;.;.;.;.;.;.;.;.;.",
";.;.;.;.;.;.;.;.; ; , ;.;.X X X . 9 ;.;.;.;.;.;.;.;.;.;.;.;.;.;.;.( ' ( Q U 8 1 : ;.;.;.;.J G D S Z ;.;.* % $ ;.;.;.;.;.;.;.;.;.",
";.;.;.;.;.;.;.;.;.: , ;.;.;.X X o . 9 ;.;.;.;.;.;.;.;.;.;.;.;.P ~ ( ' ( Q U 7 2 ;.;.;.;.J K J F D ;.;.;.& % ;.;.;.;.;.;.;.;.;.;.",
";.;.;.;.;.;.;.;.;.;.< 2 ;.;.X X . o o 9 ;.;.;.;.;.O # & = > 3 L ~ ) ' ( Q I 8 ;.;.;.;.F J K K J F ;.;.= % ;.;.;.;.;.;.;.;.;.;.;.",
";.;.;.;.;.;.;.;.;.;.< 2 3 ;.;.o X . X X 9 ;.;.;.;.@ # % - , 3 L ~ ( ' ( Q ;.;.;.;.;.D F F J H H ;.;.= * & ;.;.;.;.;.;.;.;.;.;.;.",
";.;.;.;.;.;.;.;.;.;.;.2 3 5 ;.;.X X X X . 9 9 ;.;.;.;.;.;.;.3 L ;.;.;.;.;.;.;.;.Z A S D F G J ;.;.; = * ;.;.;.;.;.;.;.;.;.;.;.;.",
";.;.;.;.;.;.;.;.;.;.;.;.3 5 ;.;.;.X . X . . 9 r r ;.;.;.;.;.;.;.;.;.;.;.;.;.m M V Z A S D F ;.;.;.; = ;.;.;.;.;.;.;.;.;.;.;.;.;.",
";.;.;.;.;.;.;.;.;.;.;.;.;.5 7 8 ;.;.o X X . . 9 r r t t s ;.;.;.;.;.j n n n n m M V A S ;.;.;.;.; - ;.;.;.;.;.;.;.;.;.;.;.;.;.;.",
";.;.;.;.;.;.;.;.;.;.;.;.;.;.8 N L ;.;.;.X X X 9 9 w t t s s d g l z x c n n n n m M V ;.;.;.1 , ; ; ;.;.;.;.;.;.;.;.;.;.;.;.;.;.",
";.;.;.;.;.;.;.;.;.;.;.;.;.;.;.N L I ;.;.;.;.X X . 0 r r t s d d l l l x c b n n m ;.;.;.;.4 < : ;.;.;.;.;.;.;.;.;.;.;.;.;.;.;.;.",
";.;.;.;.;.;.;.;.;.;.;.;.;.;.;.;.L I Y R ;.;.;.;.q . 9 r r r s s d g l k x c b ;.;.;.;.;.6 3 < ;.;.;.;.;.;.;.;.;.;.;.;.;.;.;.;.;.",
";.;.;.;.;.;.;.;.;.;.;.;.;.;.;.;.;.I Y R Q ;.;.;.;.;.;.;.t s s s d g l ;.;.;.;.;.;.;.I N 6 3 ;.;.;.;.;.;.;.;.;.;.;.;.;.;.;.;.;.;.",
";.;.;.;.;.;.;.;.;.;.;.;.;.;.;.;.;.;.;.E Q ^ ) ] ;.;.;.;.;.;.;.;.;.;.;.;.;.;.;.! W T P N ;.;.;.;.;.;.;.;.;.;.;.;.;.;.;.;.;.;.;.;.",
";.;.;.;.;.;.;.;.;.;.;.;.;.;.;.;.;.;.;.;.;.^ ` [ ..+.&.=.;.;.;.;.;.;.;.' _ ( ^ ! E T ;.;.;.;.;.;.;.;.;.;.;.;.;.;.;.;.;.;.;.;.;.;.",
";.;.;.;.;.;.;.;.;.;.;.;.;.;.;.;.;.;.;.;.;.;.;.} ..#.*.-.*.$.+.o...| } ] _ ( ^ Q ;.;.;.;.;.;.;.;.;.;.;.;.;.;.;.;.;.;.;.;.;.;.;.;.",
";.;.;.;.;.;.;.;.;.;.;.;.;.;.;.;.;.;.;.;.;.;.;.;.;.;.;.-.%.$.+.X. .| [ ' ;.;.;.;.;.;.;.;.;.;.;.;.;.;.;.;.;.;.;.;.;.;.;.;.;.;.;.;.",
";.;.;.;.;.;.;.;.;.;.;.;.;.;.;.;.;.;.;.;.;.;.;.;.;.;.;.;.;.;.;.;.;.;.;.;.;.;.;.;.;.;.;.;.;.;.;.;.;.;.;.;.;.;.;.;.;.;.;.;.;.;.;.;.",
";.;.;.;.;.;.;.;.;.;.;.;.;.;.;.;.;.;.;.;.;.;.;.;.;.;.;.;.;.;.;.;.;.;.;.;.;.;.;.;.;.;.;.;.;.;.;.;.;.;.;.;.;.;.;.;.;.;.;.;.;.;.;.;.",
";.;.;.;.;.;.;.;.;.;.;.;.;.$ $ $ $ ;.;.$ ;.$ $ $ $ $ ;.$ ;.;.;.$ $ $ ;.;.;.$ $ $ $ ;.;.;.$ ;.# $ ;.;.$ ;.;.;.;.;.;.;.;.;.;.;.;.;.",
";.;.;.;.;.;.;.;.;.;.;.;.;.$ ;.;.$ ;.;.$ ;.;.;.$ ;.;.;.$ ;.;.$ ;.;.;.$ ;.;.$ ;.;.;.$ ;.;.$ ;.$ $ ;.;.$ ;.;.;.;.;.;.;.;.;.;.;.;.;.",
";.;.;.;.;.;.;.;.;.;.;.;.$ ;.;.;.;.;.;.$ ;.;.;.$ ;.;.;.$ ;.;.$ ;.;.;.;.;.$ ;.;.;.;.$ ;.;.$ ;.$ $ $ ;.$ ;.;.;.;.;.;.;.;.;.;.;.;.;.",
";.;.;.;.;.;.;.;.;.;.;.;.$ ;.;.;.;.;.;.$ ;.;.;.$ ;.;.;.$ ;.;.$ ;.;.;.;.;.$ ;.;.;.;.$ ;.;.$ ;.$ ;.$ $ $ ;.;.;.;.;.;.;.;.;.;.;.;.;.",
";.;.;.;.;.;.;.;.;.;.;.;.$ ;.;.;.;.$ ;.$ ;.;.;.$ ;.;.;.$ ;.;.$ ;.;.;.$ ;.$ $ ;.;.;.$ ;.;.$ ;.$ ;.;.$ $ ;.;.;.;.;.;.;.;.;.;.;.;.;.",
";.;.;.;.;.;.;.;.;.;.;.;.;.$ ;.;.$ ;.;.$ ;.;.;.$ ;.;.;.$ ;.;.$ $ ;.$ $ ;.;.$ $ ;.$ $ ;.;.$ ;.$ ;.;.;.$ ;.;.;.;.;.;.;.;.;.;.;.;.;.",
";.;.;.;.;.;.;.;.;.;.;.;.;.;.$ $ ;.;.;.;.;.;.;.;.;.;.;.;.;.;.;.;.% ;.;.;.;.;.$ $ ;.;.;.;.;.;.;.;.;.;.;.;.;.;.;.;.;.;.;.;.;.;.;.;.",
";.;.;.;.;.;.;.;.;.;.;.;.;.;.;.;.;.;.;.;.;.;.;.;.;.;.;.;.;.;.;.;.;.;.;.;.;.;.;.;.;.;.;.;.;.;.;.;.;.;.;.;.;.;.;.;.;.;.;.;.;.;.;.;.",
";.;.;.;.;.;.;.;.;.;.;.;.;.;.;.;.;.;.;.;.;.;.;.;.;.;.;.;.;.;.;.;.;.;.;.;.;.;.;.;.;.;.;.;.;.;.;.;.;.;.;.;.;.;.;.;.;.;.;.;.;.;.;.;.",
";.;.;.;.;.# $ % = - ; , < 2 4 5 7 8 L P U T E Q ^ _ [ ..+.*.-.*.$.#.O...| | [ ` ) / ~ Q R I N 6 3 < > ; - * * % $ @ ;.;.;.;.;.;."
};
