/* XPM */
static char *_7a74f308bfa4604d0bb96e24affdfcf[] = {
/* columns rows colors chars-per-pixel */
"16 16 147 2 ",
"   c #51463F",
".  c #52463F",
"X  c #003D7B",
"o  c #03407F",
"O  c #0E447C",
"+  c #0F447C",
"@  c #1E4874",
"#  c #11497F",
"$  c #4F4743",
"%  c #4E4844",
"&  c #4F4D4D",
"*  c #524741",
"=  c #524742",
"-  c #514842",
";  c #534A43",
":  c #524845",
">  c #564E47",
",  c #514B48",
"<  c #534D4C",
"1  c #534F4E",
"2  c #534F4F",
"3  c #57524F",
"4  c #59504A",
"5  c #595452",
"6  c #5C5753",
"7  c #5C5756",
"8  c #5E5856",
"9  c #52565B",
"0  c #5F5B58",
"q  c #655E5C",
"w  c #636060",
"e  c #646363",
"r  c #6A6665",
"t  c #686766",
"y  c #6C6969",
"u  c #6C6A69",
"i  c #726C67",
"p  c #726C6B",
"a  c #6E7276",
"s  c #747070",
"d  c #73777B",
"f  c #7C7A79",
"g  c #7F7E7D",
"h  c #817876",
"j  c #8A7F79",
"k  c #8A817D",
"l  c #003D80",
"z  c #054282",
"x  c #054681",
"c  c #004185",
"v  c #0B4782",
"b  c #0F4884",
"n  c #0C4887",
"m  c #0D4987",
"M  c #0D4E86",
"N  c #064589",
"B  c #014A88",
"V  c #074A8B",
"C  c #024A8D",
"Z  c #0B4B89",
"A  c #0A4D8B",
"S  c #094E8C",
"D  c #104980",
"F  c #114A81",
"G  c #154981",
"H  c #114985",
"J  c #124A86",
"K  c #06518E",
"L  c #07508F",
"P  c #0F518A",
"I  c #0A518C",
"U  c #0A538F",
"Y  c #0C518C",
"T  c #0F558E",
"R  c #125289",
"E  c #10518A",
"W  c #175089",
"Q  c #10568F",
"!  c #004893",
"~  c #004D95",
"^  c #025397",
"/  c #065495",
"(  c #0E5997",
")  c #135D9B",
"_  c #165D9A",
"`  c #105C9D",
"'  c #18609D",
"]  c #095DA3",
"[  c #0D5FA1",
"{  c #0A61A5",
"}  c #0762A8",
"|  c #0761AA",
" . c #1563A2",
".. c #1564A3",
"X. c #1066A7",
"o. c #1466A7",
"O. c #156AAA",
"+. c #176EAD",
"@. c #0068B4",
"#. c #0069B6",
"$. c #0972B7",
"%. c #0772B8",
"&. c #0472BB",
"*. c #0276BF",
"=. c #0976BE",
"-. c #0A79C0",
";. c #027CC9",
":. c #0F85CB",
">. c #0C84CE",
",. c #1280C4",
"<. c #1582C4",
"1. c #1585C7",
"2. c #1684C6",
"3. c #198BCA",
"4. c #198ECF",
"5. c #118BD5",
"6. c #0F9BDE",
"7. c #1290D6",
"8. c #1693D4",
"9. c #1B94D0",
"0. c #1896D5",
"q. c #1A99D5",
"w. c #1A99D6",
"e. c #169AD9",
"r. c #0FA0E4",
"t. c #8D8B8B",
"y. c #988C86",
"u. c #999C9E",
"i. c #9D9C9C",
"p. c #A29F9D",
"a. c #A9A09B",
"s. c #B0A39A",
"d. c #A4A7A9",
"f. c #B3AFAC",
"g. c #BCB8B4",
"h. c #CABBB3",
"j. c #D7CDC5",
"k. c #D4CEC8",
"l. c #DBD4CE",
"z. c #DFD4CD",
"x. c #D0D2D4",
"c. c #E5DED7",
"v. c #F8F3EE",
"b. c #FEF9F4",
"n. c #FFFDFB",
"m. c #FFFFFD",
"M. c None",
/* pixels */
"M.M.M.M.M.y.s.j.n.b.l.M.M.M.M.M.",
"M.M.M.p h M.O./ B W M.g.i.M.M.M.",
"M.M.q M.6.:.@.! ~ C z l M.g M.M.",
"M.5 M.7.e.M.M.c.j M.M.J c M.e M.",
"M.1 ;.,.M.s d.x.d 9 - M.J N 8 M.",
"= M.&.M.8 a M.M.M.M.M.S b n M.3 ",
"  ' o.M.M.M.M.M.M.M.{ M.M.m G > ",
"% ( _ O Y ..$.2.w.2.{ M.M.S Z ; ",
"; I T O E  .&.<.w.M.V @ M.^ L = ",
"4 F M M.M.M.M.9.3.{ M.& M.| Q   ",
"7 M.b M.E X.-.8.M.M.t 1 M.=.M.= ",
"M.w z # M.M.M.M.M.u.r M.0.5.; M.",
"M.y M.o F M.M.i f.M.M.4.r.M.2 M.",
"M.M.f M.X x U ) ] #.-.>.M.7 M.M.",
"M.M.M.t.p.M.E L ` +.M.k y M.M.M.",
"M.M.M.M.M.k.m.v.z.h.a.M.M.M.M.M."
};
