/* XPM */
static char *_684f6916d7c41f2a2aeb336e40ab25d[] = {
/* columns rows colors chars-per-pixel */
"32 32 111 2 ",
"   c #003878",
".  c #0E467E",
"X  c #0F487F",
"o  c #10477E",
"O  c #11487F",
"+  c #464647",
"@  c #4A4745",
"#  c #4F4845",
"$  c #47474A",
"%  c #47484B",
"&  c #4A4A4C",
"*  c #524A45",
"=  c #514C4B",
"-  c #4D4F51",
";  c #4E5054",
":  c #525355",
">  c #545759",
",  c #5A5B5D",
"<  c #615855",
"1  c #575B60",
"2  c #5C5E61",
"3  c #626365",
"4  c #65676A",
"5  c #67686C",
"6  c #6B6C6F",
"7  c #726968",
"8  c #6C6E72",
"9  c #6F7174",
"0  c #747273",
"q  c #767A7D",
"w  c #797A7C",
"e  c #003E80",
"r  c #074482",
"t  c #094583",
"y  c #004987",
"u  c #0E4A84",
"i  c #004788",
"p  c #094789",
"a  c #034E8F",
"s  c #0C4D8A",
"d  c #114984",
"f  c #0B518D",
"g  c #11548C",
"h  c #034A90",
"j  c #045393",
"k  c #0D5691",
"l  c #0C5897",
"z  c #055699",
"x  c #0C5A9B",
"c  c #105691",
"v  c #135993",
"b  c #155E9B",
"n  c #17609E",
"m  c #045CA5",
"M  c #085CA1",
"N  c #0D67AB",
"B  c #0F6AAC",
"V  c #1462A3",
"C  c #1A64A2",
"Z  c #126BAC",
"A  c #0B6FB2",
"S  c #0771B6",
"D  c #0B71B4",
"F  c #0474BB",
"G  c #0B77BB",
"H  c #0C79BC",
"J  c #1277BA",
"K  c #7C7F82",
"L  c #0077C3",
"P  c #127DC0",
"I  c #7E8286",
"U  c #1682C5",
"Y  c #1A85C6",
"T  c #1885C9",
"R  c #1B8CCB",
"E  c #1A90CE",
"W  c #0C93DA",
"Q  c #1A94D1",
"!  c #179AD6",
"~  c #189AD5",
"^  c #11A1E2",
"/  c #838487",
"(  c #8A8380",
")  c #8B8887",
"_  c #848689",
"`  c #8B8988",
"'  c #8E9194",
"]  c #929496",
"[  c #9A9D9F",
"{  c #A39690",
"}  c #9D9FA2",
"|  c #A1A3A5",
" . c #AAA4A1",
".. c #A4A6A9",
"X. c #ACABAC",
"o. c #ABADB0",
"O. c #ACB0B4",
"+. c #B1B3B5",
"@. c #BCB7B3",
"#. c #B6B7B8",
"$. c #BBBABC",
"%. c #CCCCCE",
"&. c #D0CFCF",
"*. c #DCD7D3",
"=. c #DADBDC",
"-. c #E3E3E4",
";. c #ECE5E0",
":. c #ECECED",
">. c #F3F3F3",
",. c #F7F8F9",
"<. c None",
/* pixels */
"<.<.<.<.<.<.<.<.<.<.<.<.' [ +.&.>.>.=.%.<.<.<.<.<.<.<.<.<.<.<.<.",
"<.<.<.<.<.<.<.<.<.<.K ` { <.<.<.<.<.<.*.$.o.<.<.<.<.<.<.<.<.<.<.",
"<.<.<.<.<.<.<.<.8 0 <.<.<.m j a i e <.<.<.@.} <.<.<.<.<.<.<.<.<.",
"<.<.<.<.<.<.<.4 7 <.W Y H A V l k s s d t <.<.' I <.<.<.<.<.<.<.",
"<.<.<.<.<.<.2 <.<.! ~ R U <.<.<.<.<.<.s d d <.<.w 6 <.<.<.<.<.<.",
"<.<.<.<.<.> < <.R Q ~ <.<.<.<.<.<.<.<.<.<.d d t <.5 <.<.<.<.<.<.",
"<.<.<.<.<.: <.P Y R <.<./ | -.#.w 3 : <.<.<.d d <.<., <.<.<.<.<.",
"<.<.<.<.- <.L H P <.<.8 / | -.#.w 3 : % + <.d d d <., <.<.<.<.<.",
"<.<.<.<.= <.S F <.<., 9 / <.<.<.<.<.<.& <.f p d d p <.: <.<.<.<.",
"<.<.<.& <.<.B S <.- 2 <.<.<.<.<.<.<.<.<.z f <.<.u d <.: <.<.<.<.",
"<.<.<.& <.V V <.<.<.<.<.<.<.<.<.<.<.<.N l <.<.<.p d <.= <.<.<.<.",
"<.<.<.& <.b n <.. u k <.<.<.<.<.~ Q P N <.<.<.<.<.d <.<.& <.<.<.",
"<.<.<.= <.k b <.o u c n B F P R ! Q P <.<.<.<.<.<.s h <.% <.<.<.",
"<.<.<.= <.f v <.o u c n B F P R ! Q <.<.p <.# <.<.f <.<.% <.<.<.",
"<.<.<.- <.u f <.<.<.c b B F <.<.<.<.x f <.<.% <.<.j <.<.% <.<.<.",
"<.<.<.- <.t u <.<.<.<.<.<.<.<.~ Q H x <.<.- & <.V x <.# <.<.<.<.",
"<.<.<.: <.<.u u <.X c V A H R ~ R J <.<., ; <.<.A V <.& <.<.<.<.",
"<.<.<.<., <.o . <.u c V A H Y <.<.<.<.9 , : <.T H L <.& <.<.<.<.",
"<.<.<.<., <.r o u <.<.<.<.<.<.<.<.O.] 9 , <.<.R U <.= <.<.<.<.<.",
"<.<.<.<.<.3 <.u o X <.<.<.<., w ..+.' 0 <.<.~ ~ <.<.; <.<.<.<.<.",
"<.<.<.<.<.5 0 <.X o u <.<.* , w X.<.<.<.T R Q ^ <.: <.<.<.<.<.<.",
"<.<.<.<.<.<.0 <.<.o X u k <.<.<.<.<.F G J Y <.<., > <.<.<.<.<.<.",
"<.<.<.<.<.<.<.w ` <.<.. d g v b C Z D G L <.<.3 , <.<.<.<.<.<.<.",
"<.<.<.<.<.<.<.<._ ] <.<.<.  y j x M <.<.<.( 9 <.<.<.<.<.<.<.<.<.",
"<.<.<.<.<.<.<.<.<.<.} $.;.<.<.<.<.<.<. .] I <.<.<.<.<.<.<.<.<.<.",
"<.<.<.<.<.<.<.<.<.<.<.<.=.,.:.=.&.$.o.<.<.<.<.<.<.<.<.<.<.<.<.<.",
"<.<.<.<.<.<.<.<.<.<.<.<.<.<.<.<.<.<.<.<.<.<.<.<.<.<.<.<.<.<.<.<.",
"<.<.<.<.<.<.<.<.<.<.<.& <.<.<.<.<.<.<.<.<.<.<.& <.<.<.<.<.<.<.<.",
"<.<.<.<.<.<.<.<.<.<.<.<.<.<.<.<.<.<.<.<.<.<.<.& & <.<.<.<.<.<.<.",
"<.<.<.<.<.<.<.<.<.<.<.<.<.<.<.<.<.<.<.<.<.<.<.<.<.& <.<.<.<.<.<.",
"<.<.<.<.<.<.<.<.<.<.<.<.<.<.<.<.<.<.<.<.<.<.<.<.<.<.<.<.<.<.<.<.",
"<.<.<.<.<.<.<.<.<.<.<.<.<.<.<.<.<.<.<.<.<.<.<.<.<.<.<.<.<.<.<.<."
};
